<?xml version="1.0" encoding="UTF-8"?>
<svg width="700pt" height="700pt" version="1.1" viewBox="0 0 700 700" xmlns="http://www.w3.org/2000/svg">
 <g>
  <path d="m623 0.39844c-0.65625-0.21875-1.3398-0.35547-2.0312-0.39844h-415.47c-0.79688 0.046875-1.582 0.21484-2.332 0.48828-2.4258 0.62109-4.4609 2.2656-5.5781 4.5039-0.67578 1.2422-1.043 2.625-1.0742 4.0391v103.2c-15.832 11.934-29.289 26.734-39.664 43.633-16.188 26.684-23.832 57.68-21.914 88.828 1.918 31.152 13.309 60.973 32.645 85.473-0.23438 0.23438-0.46484 0.69922-0.69922 0.93359l-14 23.102-7.6992-4.668c-4.2422-2.4258-9.6406-1.0312-12.172 3.1484-2.5352 4.1797-1.2734 9.6133 2.8398 12.25l7.6992 4.668-65.613 108.03c-10.047 16.547-10.5 37.195-1.1914 54.172 9.3086 16.973 26.965 27.688 46.316 28.113 19.352 0.42578 37.465-9.5039 47.508-26.051l29.168-48.301c1.6133 1.4062 3.6953 2.1562 5.832 2.1016h415.47c4.9336-0.039063 8.9219-4.0273 8.9609-8.9609v-469.68c-0.039062-0.69141-0.17188-1.375-0.39844-2.0312-0.71484-3.3047-3.2969-5.8867-6.6016-6.6016zm-450.57 164.8c6.5273-10.855 14.625-20.684 24.031-29.164 5.5039-5.2617 11.523-9.9531 17.969-14 5.8086-3.7227 11.895-7 18.199-9.8008 5.8125-2.6992 11.816-4.9609 17.969-6.7695 36.348-10.449 75.406-5.293 107.8 14.234 3.5 2.1016 6.7656 4.4336 10.035 6.7656 7.2734 5.3047 13.996 11.324 20.066 17.969 5.1211 5.6445 9.7266 11.738 13.766 18.199 3.6875 5.7109 6.8867 11.723 9.5664 17.969 0 0.23438 0.23438 0.23438 0.23438 0.46484 2.5859 5.8867 4.6914 11.973 6.3008 18.199 2.8359 9.3164 4.4062 18.969 4.668 28.699 0.46484 6.0586 0.46484 12.145 0 18.203-0.63672 9.7461-2.4375 19.383-5.3672 28.699-1.8867 6.2305-4.2266 12.312-7 18.199-1.9336 4.4414-4.1953 8.7305-6.7695 12.832-3.332 5.6758-7.2422 10.996-11.664 15.867-0.86328 1.2227-1.7969 2.3906-2.8008 3.5-4.582 5.3672-9.6602 10.289-15.168 14.699-1.2617 1.1602-2.5859 2.25-3.9648 3.2695-21.656 16.465-47.762 26.051-74.93 27.504-27.168 1.457-54.145-5.2812-77.438-19.34-1.2188-0.69531-2.3906-1.4727-3.5-2.332-6.4297-3.9844-12.445-8.5977-17.969-13.766-23.074-21.191-38.082-49.73-42.465-80.75s2.1328-62.598 18.434-89.352zm78.168-111.07h325.27v72.332h-179.67c-8.6094-8.4531-18.16-15.891-28.465-22.164-35.078-21.43-77.367-27.664-117.13-17.266zm-70.703 290.27c5.1484 5.0938 10.688 9.7773 16.566 14 3.8555 3.0664 7.9102 5.8711 12.137 8.4023 1.8672 1.168 3.9648 2.332 5.832 3.2656 8.5781 4.8477 17.652 8.7578 27.066 11.668l-11.434 19.367-15.633-9.5664-17.965-10.734-28.234-17.266zm16.566 112-41.297 68.137c-6.7109 11.043-18.805 17.672-31.727 17.383-12.922-0.28906-24.707-7.4492-30.918-18.785-6.207-11.336-5.9023-25.121 0.80859-36.168l65.566-108.04 37.566 22.867 17.965 10.965 6.3008 3.7344-6.3008 10.266zm415.47 13.277h-397.5v-8.168l21.699-35.699 7.6992 4.668c4.2422 2.4258 9.6445 1.0273 12.176-3.1484 2.5312-4.1797 1.2695-9.6133-2.8398-12.25l-7.6992-4.668 14-23.332h-0.003906c0.17969-0.1875 0.26562-0.44531 0.23438-0.70312 17.242 3.1016 34.891 3.2227 52.176 0.35156h273c4.9844 0 9.0273-4.043 9.0273-9.0312 0-4.9844-4.043-9.0273-9.0273-9.0273h-221.11c4.1055-2.332 8.2383-4.668 12.133-7.4883v-0.003907c7.8086-5.2578 15.078-11.277 21.703-17.965 0.93359-1.168 2.1016-2.1016 3.0352-3.2656h184.1l-0.003906-0.003906c2.4141 0 4.7266-0.95703 6.4336-2.6641 1.707-1.707 2.6641-4.0195 2.6641-6.4336 0.039063-2.4258-0.90625-4.7617-2.6211-6.4766-1.7148-1.7148-4.0508-2.6602-6.4766-2.625h-169.63c1.6094-2.082 3.0898-4.2656 4.4336-6.5312 4.3477-7.0273 8.0195-14.449 10.965-22.168h154.23c5.0234 0 9.0977-4.0742 9.0977-9.1016 0-5.0234-4.0742-9.0977-9.0977-9.0977h-147.93c2.3672-9.418 3.9258-19.02 4.6641-28.699h143.27c5.0234 0 9.0977-4.0742 9.0977-9.1016 0-5.0273-4.0742-9.1016-9.0977-9.1016h-143.5c-0.21875-9.6992-1.6289-19.34-4.1992-28.699h147.7c2.4258 0.039062 4.7617-0.90625 6.4766-2.6211 1.7148-1.7148 2.6602-4.0547 2.6211-6.4766 0-5.0273-4.0742-9.1016-9.0977-9.1016h-153.07c-0.23438-0.23438-0.23438-0.23438-0.23438-0.46484-2.3672-6.1836-5.1758-12.188-8.3984-17.969-3.3672-6.3359-7.1875-12.418-11.434-18.199h173.13c2.3867 0.050782 4.6953-0.85938 6.4062-2.5273 1.7109-1.668 2.6797-3.9492 2.6914-6.3398v-90.277c0.039063-2.4258-0.90625-4.7617-2.6211-6.4766-1.7148-1.7148-4.0508-2.6602-6.4766-2.6211h-343.23c-2.3867 0.011719-4.6719 0.98047-6.3398 2.6914-1.668 1.7109-2.5781 4.0195-2.5273 6.4062v47.367c-6.2773 2.3242-12.359 5.1328-18.199 8.4023v-55.465-0.42187-27.09h397.51z"/>
  <path d="m584.85 415.57h-292.27c-4.9883 0-9.0312 4.043-9.0312 9.0312 0 4.9844 4.043 9.0273 9.0312 9.0273h292.27c4.9844 0 9.0273-4.043 9.0273-9.0273 0-4.9883-4.043-9.0312-9.0273-9.0312z"/>
  <path d="m215.9 194.13h144.41c4.8555-0.24609 8.6641-4.25 8.6641-9.1094 0-4.8594-3.8086-8.8672-8.6641-9.1133h-144.41c-2.4961-0.125-4.9336 0.77734-6.7461 2.5s-2.8359 4.1133-2.8359 6.6133c0 2.4961 1.0234 4.8867 2.8359 6.6094 1.8125 1.7227 4.25 2.625 6.7461 2.5z"/>
  <path d="m396.22 235.67c0-5.0273-4.0742-9.1016-9.0977-9.1016h-198.12c-5.0273 0-9.1016 4.0742-9.1016 9.1016 0 5.0234 4.0742 9.0977 9.1016 9.0977h198.03c2.4297 0.027344 4.7656-0.92188 6.4922-2.6328 1.7266-1.707 2.6992-4.0352 2.6992-6.4648z"/>
  <path d="m360.31 276.96h-144.41c-2.4961-0.125-4.9336 0.77734-6.7461 2.5s-2.8359 4.1133-2.8359 6.6133 1.0234 4.8906 2.8359 6.6133 4.25 2.625 6.7461 2.5h144.41c4.8555-0.24609 8.6641-4.2539 8.6641-9.1133s-3.8086-8.8672-8.6641-9.1133z"/>
 </g>
</svg>
