<?xml version="1.0" encoding="UTF-8"?>
<svg width="700pt" height="700pt" version="1.1" viewBox="0 0 700 700" xmlns="http://www.w3.org/2000/svg">
 <g fill-rule="evenodd">
  <path d="m486.05 38.484c0-6.7578-5.4805-12.234-12.234-12.234h-343.04c-6.7539 0-12.23 5.4766-12.23 12.234v483.03c0 6.7578 5.4766 12.234 12.23 12.234h343.04c6.7539 0 12.234-5.4766 12.234-12.234v-483.03zm-58.348 5.2656v45.762c0 4.832-3.918 8.75-8.75 8.75-4.8281 0-8.75-3.918-8.75-8.75v-45.762h-215.83v45.762c0 4.832-3.918 8.75-8.75 8.75-4.8281 0-8.75-3.918-8.75-8.75v-45.762h-40.824v472.5h332.5v-472.5z"/>
  <path d="m234.23 78.812h136.11c4.8242 0 8.75-3.9258 8.75-8.75 0-4.8203-3.9258-8.75-8.75-8.75h-136.11c-4.8242 0-8.75 3.9297-8.75 8.75 0 4.8242 3.9258 8.75 8.75 8.75z"/>
  <path d="m233.1 166.31h178.57c4.8203 0 8.75-3.9258 8.75-8.75 0-4.8203-3.9297-8.75-8.75-8.75h-178.57c-4.8203 0-8.75 3.9297-8.75 8.75 0 4.8242 3.9297 8.75 8.75 8.75z"/>
  <path d="m192.92 166.31h8.9258c4.832 0 8.75-3.9258 8.75-8.75 0-4.8203-3.918-8.75-8.75-8.75h-8.9258c-4.832 0-8.75 3.9297-8.75 8.75 0 4.8242 3.918 8.75 8.75 8.75z"/>
  <path d="m233.1 341.31h178.57c4.8203 0 8.75-3.9258 8.75-8.75 0-4.8203-3.9297-8.75-8.75-8.75h-178.57c-4.8203 0-8.75 3.9297-8.75 8.75 0 4.8242 3.9297 8.75 8.75 8.75z"/>
  <path d="m192.92 341.31h8.9258c4.832 0 8.75-3.9258 8.75-8.75 0-4.8203-3.918-8.75-8.75-8.75h-8.9258c-4.832 0-8.75 3.9297-8.75 8.75 0 4.8242 3.918 8.75 8.75 8.75z"/>
  <path d="m233.1 224.65h178.57c4.8203 0 8.75-3.9297 8.75-8.75 0-4.8242-3.9297-8.75-8.75-8.75h-178.57c-4.8203 0-8.75 3.9258-8.75 8.75 0 4.8203 3.9297 8.75 8.75 8.75z"/>
  <path d="m192.92 224.65h8.9258c4.832 0 8.75-3.9297 8.75-8.75 0-4.8242-3.918-8.75-8.75-8.75h-8.9258c-4.832 0-8.75 3.9258-8.75 8.75 0 4.8203 3.918 8.75 8.75 8.75z"/>
  <path d="m233.1 399.65h178.57c4.8203 0 8.75-3.9297 8.75-8.75 0-4.8242-3.9297-8.75-8.75-8.75h-178.57c-4.8203 0-8.75 3.9258-8.75 8.75 0 4.8203 3.9297 8.75 8.75 8.75z"/>
  <path d="m192.92 399.65h8.9258c4.832 0 8.75-3.9297 8.75-8.75 0-4.8242-3.918-8.75-8.75-8.75h-8.9258c-4.832 0-8.75 3.9258-8.75 8.75 0 4.8203 3.918 8.75 8.75 8.75z"/>
  <path d="m233.1 282.98h178.57c4.8203 0 8.75-3.9297 8.75-8.75 0-4.8242-3.9297-8.75-8.75-8.75h-178.57c-4.8203 0-8.75 3.9258-8.75 8.75 0 4.8203 3.9297 8.75 8.75 8.75z"/>
  <path d="m192.92 282.98h8.9258c4.832 0 8.75-3.9297 8.75-8.75 0-4.8242-3.918-8.75-8.75-8.75h-8.9258c-4.832 0-8.75 3.9258-8.75 8.75 0 4.8203 3.918 8.75 8.75 8.75z"/>
  <path d="m233.1 457.98h178.57c4.8203 0 8.75-3.9297 8.75-8.75 0-4.8242-3.9297-8.75-8.75-8.75h-178.57c-4.8203 0-8.75 3.9258-8.75 8.75 0 4.8203 3.9297 8.75 8.75 8.75z"/>
  <path d="m192.92 457.98h8.9258c4.832 0 8.75-3.9297 8.75-8.75 0-4.8242-3.918-8.75-8.75-8.75h-8.9258c-4.832 0-8.75 3.9258-8.75 8.75 0 4.8203 3.918 8.75 8.75 8.75z"/>
  <path d="m518.09 125.27 24.203-67.867c1.2422-3.4805 4.5508-5.8086 8.2422-5.8086 3.7109 0 7 2.3281 8.2422 5.8086l24.273 68.059c0.59375 1.6797 0.64844 3.4844 0.21094 5.1641v386.75c0 4.8281-3.9219 8.75-8.75 8.75h-48.23c-4.8477 0-8.75-3.9219-8.75-8.75v-389.48c0.050781-0.91016 0.24609-1.8047 0.55859-2.625zm16.941 342.44v40.918h30.73v-40.918zm0-330.55v313.05h30.73v-313.05zm3.6562-17.5h23.715l-11.867-33.25z"/>
 </g>
</svg>
