<?xml version="1.0" encoding="UTF-8"?>
<svg width="700pt" height="700pt" version="1.1" viewBox="0 0 700 700" xmlns="http://www.w3.org/2000/svg" xmlns:xlink="http://www.w3.org/1999/xlink">
 <g>
  <path d="m536.52 17.5h-283.36 0.003906c-0.36719 0.023438-0.73438 0.066406-1.0938 0.13281-0.37109 0.078126-0.73828 0.17969-1.0938 0.30469l-0.26172 0.097656c-0.34766 0.12109-0.68359 0.26953-1.0078 0.4375-0.33203 0.17969-0.65625 0.38281-0.96094 0.60156l-0.23047 0.17578c-0.3125 0.23438-0.60547 0.48438-0.88672 0.75391l-105 105c-0.26953 0.28125-0.51953 0.57812-0.75391 0.88672l-0.17578 0.23047c-0.21875 0.30859-0.41797 0.62891-0.60156 0.96094v0.066407c-0.16406 0.31641-0.30469 0.64062-0.42578 0.97266l-0.097657 0.27344c-0.125 0.35938-0.22656 0.72266-0.30859 1.0938-0.066407 0.36328-0.10938 0.72656-0.12891 1.0938v0.29688 0.29688 387.84c0.003907 6.207 2.4609 12.156 6.8359 16.555 4.375 4.3984 10.312 6.8906 16.516 6.9297h373.03c6.2266-0.003906 12.199-2.4805 16.602-6.8828 4.4023-4.4023 6.8789-10.375 6.8828-16.602v-478.03c-0.003906-6.2266-2.4805-12.199-6.8828-16.602-4.4023-4.4023-10.375-6.8789-16.602-6.8828zm-291.52 29.871v75.129h-75.129zm297.5 471.64c0 3.3047-2.6797 5.9844-5.9844 5.9844h-373.03c-1.5898 0-3.1094-0.62891-4.2305-1.7539-1.125-1.1211-1.7539-2.6406-1.7539-4.2305v-379.02h96.25c2.3203 0 4.5469-0.92188 6.1875-2.5625s2.5625-3.8672 2.5625-6.1875v-96.25h274.02c1.5898 0 3.1094 0.62891 4.2305 1.7539 1.125 1.1211 1.7539 2.6406 1.7539 4.2305z"/>
  <path d="m525 227.5c0-2.3203-0.92188-4.5469-2.5625-6.1875s-3.8672-2.5625-6.1875-2.5625h-253.75c-4.832 0-8.75 3.918-8.75 8.75s3.918 8.75 8.75 8.75h100.73c-1.3867 0.41406-2.6484 1.1641-3.6758 2.1875l-37.121 37.188-13.18 13.125h-46.758c-4.832 0-8.75 3.918-8.75 8.75s3.918 8.75 8.75 8.75h29.258l-55.508 55.508v-11.758c0-2.3203-0.92188-4.5469-2.5625-6.1875s-3.8672-2.5625-6.1875-2.5625h-35c-4.832 0-8.75 3.918-8.75 8.75v35c0 2.3203 0.92188 4.5469 2.5625 6.1875s3.8672 2.5625 6.1875 2.5625h24.859l-4.375 17.5h-20.484c-4.832 0-8.75 3.918-8.75 8.75v35c0 2.3203 0.92188 4.5469 2.5625 6.1875s3.8672 2.5625 6.1875 2.5625h35c2.3203 0 4.5469-0.92188 6.1875-2.5625s2.5625-3.8672 2.5625-6.1875v-20.484l32.625-8.1602h0.12109c0.32812-0.085938 0.64844-0.19141 0.96484-0.31641 0.33203-0.13281 0.66016-0.28516 0.97266-0.46094l0.19531-0.12109c0.24219-0.13281 0.47266-0.28125 0.69141-0.44922l0.24219-0.17578-0.003906 0.003907c0.22266-0.17188 0.43359-0.35547 0.63672-0.54688l0.16406-0.14062 39.133-39.148h204.26c4.832 0 8.75-3.918 8.75-8.75s-3.918-8.75-8.75-8.75h-186.76l61.25-61.25h125.51c4.832 0 8.75-3.918 8.75-8.75s-3.918-8.75-8.75-8.75h-108.01l0.82031-0.80859c3.3789-3.4102 3.3789-8.9062 0-12.316l-37.133-37.188c-1.0234-1.0234-2.2852-1.7773-3.6758-2.1875h148c2.3203 0 4.5469-0.92188 6.1875-2.5625s2.5625-3.8672 2.5625-6.1875zm-222.82 142.57-35.426 35.426-24.75-24.75 77.055-77.055 9.5586-9.5469 24.742 24.742-51.176 51.188zm-100.93-11.32h17.5v17.5h-17.5zm0 87.5v-17.5h7.4062c-0.44141 2.5391 0.25781 5.1445 1.9141 7.1211 1.6602 1.9766 4.1016 3.1211 6.6797 3.1289 0.50391-0.011719 1.0039-0.058594 1.5-0.14453v7.3945zm28.031-28.031 5.0859-20.355 15.312 15.312zm161.19-136.47-9.5469 9.5586-15.172 15.191-24.75-24.75 24.75-24.719z"/>
  <path d="m516.25 437.5h-253.75c-4.832 0-8.75 3.918-8.75 8.75s3.918 8.75 8.75 8.75h253.75c4.832 0 8.75-3.918 8.75-8.75s-3.918-8.75-8.75-8.75z"/>
  <path d="m195.06 242.44c1.6406 1.6406 3.8672 2.5664 6.1914 2.5664s4.5508-0.92578 6.1914-2.5664l43.75-43.75c3.418-3.418 3.418-8.9648 0-12.383-3.418-3.418-8.9648-3.418-12.383 0l-37.559 37.57-11.309-11.32c-3.418-3.418-8.9648-3.418-12.383 0-3.418 3.418-3.418 8.9648 0 12.383z"/>
  <path d="m201.25 315c2.3203 0 4.5469-0.91797 6.1914-2.5586l43.75-43.75c3.418-3.418 3.418-8.9648 0-12.383-3.418-3.418-8.9648-3.418-12.383 0l-37.559 37.57-11.309-11.32c-3.418-3.418-8.9648-3.418-12.383 0-3.418 3.418-3.418 8.9648 0 12.383l17.5 17.5c1.6445 1.6406 3.8711 2.5586 6.1914 2.5586z"/>
  <path d="m411.25 175c2.3203 0 4.5469-0.92188 6.1875-2.5625s2.5625-3.8672 2.5625-6.1875v-17.5c0-4.832-3.918-8.75-8.75-8.75s-8.75 3.918-8.75 8.75v17.5c0 2.3203 0.92188 4.5469 2.5625 6.1875s3.8672 2.5625 6.1875 2.5625z"/>
  <path d="m437.5 175c2.3203 0 4.5469-0.92188 6.1875-2.5625s2.5625-3.8672 2.5625-6.1875v-17.5c0-4.832-3.918-8.75-8.75-8.75s-8.75 3.918-8.75 8.75v17.5c0 2.3203 0.92188 4.5469 2.5625 6.1875s3.8672 2.5625 6.1875 2.5625z"/>
  <path d="m385 175c2.3203 0 4.5469-0.92188 6.1875-2.5625s2.5625-3.8672 2.5625-6.1875v-17.5c0-4.832-3.918-8.75-8.75-8.75s-8.75 3.918-8.75 8.75v17.5c0 2.3203 0.92188 4.5469 2.5625 6.1875s3.8672 2.5625 6.1875 2.5625z"/>
  <path d="m343.16 131.25 15.848 63.438c1 3.8672 4.4922 6.5703 8.4883 6.5625h87.5c4.0156 0 7.5156-2.7344 8.4883-6.6289l15.848-63.371c5.9336-0.14844 10.664-5.0039 10.664-10.938v-21.875c0-2.9023-1.1523-5.6836-3.2031-7.7344s-4.832-3.2031-7.7344-3.2031h-9.3281l-25.398-31.719c-3.0195-3.7734-8.5312-4.3867-12.305-1.3672-3.7734 3.0195-4.3867 8.5312-1.3672 12.305l16.68 20.781h-72.078l16.625-20.781c3.0195-3.7734 2.4062-9.2852-1.3672-12.305-3.7734-3.0195-9.2852-2.4062-12.305 1.3672l-25.418 31.719h-9.3633c-6.0391 0-10.938 4.8984-10.938 10.938v21.875c0 5.9336 4.7305 10.789 10.664 10.938zm6.8359-26.25h122.5v8.75h-122.5zm98.164 78.75h-73.828l-13.125-52.5h100.08z"/>
 </g>
</svg>
