<?xml version="1.0" encoding="UTF-8"?>
<svg width="700pt" height="700pt" version="1.1" viewBox="0 0 700 700" xmlns="http://www.w3.org/2000/svg" xmlns:xlink="http://www.w3.org/1999/xlink">
 <g>
  <path d="m350 41.609c-19.141 58.828-39.258 120.75-59.445 182.88-63.461-0.11328-132.19 0.14062-192.55 0.15234 52.238 37.793 108.61 79.016 155.64 113.12-19.527 60.305-40.824 125.71-59.445 183.02 49.887-36.406 102.93-74.621 155.8-113.01 55.855 40.539 104.68 75.98 155.64 113.01-19.355-59.227-39.258-120.73-59.445-183.02 51.52-37.168 106.04-77.066 155.8-113.12-64.406-0.003907-133.9 0.011719-192.41 0m-59.594-126.91c15.562 48.121 31.434 96.152 46.891 144.3h151.54l-122.67 89.09c17.297 52.566 30.285 92.914 46.891 144.15-40.82-29.797-81.957-59.152-122.67-89.09-40.906 29.676-81.781 59.395-122.67 89.09l46.891-144.15c-42.668-31.012-86.117-62.539-122.67-89.09h151.54c16.258-50.266 32.898-101.3 46.891-144.3"/>
  
 </g>
</svg>
