<?xml version="1.0" encoding="UTF-8"?>
<svg width="700pt" height="700pt" version="1.1" viewBox="0 0 700 700" xmlns="http://www.w3.org/2000/svg" xmlns:xlink="http://www.w3.org/1999/xlink">
 <g>
  <path d="M 350 41.7 c -19.1 58.8 -39.3 120.7 -59.5 182.9 c -63.5 -0.1 -132.1 0.2 -192.5 0.2 c 52.2 37.8 108.5 78.9 155.6 113.1 c -19.5 60.3 -40.7 125.7 -59.3 183 c 49.9 -36.4 102.9 -74.7 155.7 -113.1 c 55.9 40.5 104.6 76 155.6 113.1 c -19.4 -59.2 -39.1 -120.8 -59.3 -183.1 c 51.5 -37.2 106 -77 155.8 -113.1 c -64.4 0 -133.8 0 -192.3 0 m -59.7 -127 c 15.6 48.1 31.4 96.2 46.9 144.4 h 151.5 l -122.7 89.1 c 17.3 52.6 30.3 93 46.9 144.2 c -40.8 -29.8 -82 -59.1 -122.7 -89.1 v -288.6"/>
  <use transform="matrix(null,null,null,null,null,null)" x="407.2" y="672" xlink:href="#c"/>
 </g>
</svg>
