<?xml version="1.0" encoding="UTF-8" standalone="no"?>
<svg
   xmlns:dc="http://purl.org/dc/elements/1.1/"
   xmlns:cc="http://creativecommons.org/ns#"
   xmlns:rdf="http://www.w3.org/1999/02/22-rdf-syntax-ns#"
   xmlns:svg="http://www.w3.org/2000/svg"
   xmlns="http://www.w3.org/2000/svg"
   xmlns:sodipodi="http://sodipodi.sourceforge.net/DTD/sodipodi-0.dtd"
   xmlns:inkscape="http://www.inkscape.org/namespaces/inkscape"
   width="24"
   height="24"
   viewBox="0 0 24 24"
   fill="none"
   stroke="currentColor"
   stroke-width="2"
   stroke-linecap="round"
   stroke-linejoin="round"
   class="feather feather-thumbs-up"
   version="1.1"
   id="svg3755"
   sodipodi:docname="thumbs-up-selected.svg"
   inkscape:version="0.92.4 (5da689c313, 2019-01-14)">
  <metadata
     id="metadata3761">
    <rdf:RDF>
      <cc:Work
         rdf:about="">
        <dc:format>image/svg+xml</dc:format>
        <dc:type
           rdf:resource="http://purl.org/dc/dcmitype/StillImage" />
        <dc:title></dc:title>
      </cc:Work>
    </rdf:RDF>
  </metadata>
  <defs
     id="defs3759" />
  <sodipodi:namedview
     pagecolor="#ffffff"
     bordercolor="#666666"
     borderopacity="1"
     objecttolerance="10"
     gridtolerance="10"
     guidetolerance="10"
     inkscape:pageopacity="0"
     inkscape:pageshadow="2"
     inkscape:window-width="5120"
     inkscape:window-height="1369"
     id="namedview3757"
     showgrid="false"
     inkscape:zoom="9.8333333"
     inkscape:cx="12"
     inkscape:cy="12"
     inkscape:window-x="-8"
     inkscape:window-y="-8"
     inkscape:window-maximized="1"
     inkscape:current-layer="svg3755" />
  <path
     d="M14 9V5a3 3 0 0 0-3-3l-4 9v11h11.28a2 2 0 0 0 2-1.7l1.38-9a2 2 0 0 0-2-2.3zM7 22H4a2 2 0 0 1-2-2v-7a2 2 0 0 1 2-2h3"
     id="path3753" />
  <path
     style="fill:#ff0000;stroke-width:0.20338982"
     d="M 3.2235994,22.839612 C 2.2158977,22.565426 1.333323,21.627323 1.1210412,20.604768 c -0.075099,-0.361749 -0.1031994,-1.845345 -0.08329,-4.397387 0.029722,-3.809958 0.03266,-3.857232 0.27267,-4.38834 0.2984264,-0.660373 1.0592017,-1.368179 1.7082847,-1.589343 0.3465433,-0.11808 0.8649308,-0.161901 1.915198,-0.161901 H 6.3739483 L 8.3046952,5.7216287 C 10.536362,0.69808252 10.39008,0.90547558 11.564429,1.1000715 c 1.321003,0.2188972 2.493374,1.1136288 3.055385,2.3318119 0.257536,0.5582212 0.271701,0.6769449 0.308737,2.587538 l 0.03882,2.0024722 2.711231,0.031426 2.711232,0.031426 0.583611,0.2865856 c 1.013479,0.4976743 1.628274,1.4651159 1.6274,2.5608718 -3.05e-4,0.335594 -0.323851,2.70061 -0.719072,5.255591 -0.78627,5.082993 -0.848255,5.313604 -1.60736,5.980107 -0.210496,0.184818 -0.590978,0.432394 -0.845514,0.550167 -0.456227,0.211097 -0.571038,0.214421 -8.089913,0.234266 -6.0108815,0.01586 -7.7305852,-0.008 -8.1153836,-0.112722 z M 6,16.525424 V 12 H 4.7853319 c -1.137265,0 -1.2328505,0.01563 -1.5,0.245346 L 3,12.490692 2.9711,16.421531 2.942201,20.35237 3.2914394,20.701609 3.6406779,21.050847 H 4.820339 6 Z m 12.88075,4.32867 c 0.176787,-0.107796 0.347145,-0.279236 0.378576,-0.380975 0.161568,-0.522997 1.479196,-9.534356 1.425426,-9.748595 -0.03459,-0.137801 -0.198689,-0.364819 -0.364671,-0.504485 L 20.018293,9.9661017 H 16.875158 13.732022 L 13.39991,9.669577 13.067797,9.3730524 13.016949,6.8475431 C 12.974824,4.7552396 12.937233,4.2697021 12.797798,4.0169492 12.506851,3.4895478 11.7657,2.9385935 11.588113,3.1176975 11.541381,3.1648283 10.699685,5.0099144 9.7176752,7.2178888 L 7.9322034,11.232387 v 4.909231 4.909229 l 5.3135596,-4.06e-4 c 5.067364,-4.07e-4 5.328452,-0.0095 5.634987,-0.196373 z"
     id="path3763"
     inkscape:connector-curvature="0" />
</svg>
