<?xml version="1.0" encoding="UTF-8" standalone="no"?>
<svg
   xmlns:dc="http://purl.org/dc/elements/1.1/"
   xmlns:cc="http://creativecommons.org/ns#"
   xmlns:rdf="http://www.w3.org/1999/02/22-rdf-syntax-ns#"
   xmlns:svg="http://www.w3.org/2000/svg"
   xmlns="http://www.w3.org/2000/svg"
   xmlns:sodipodi="http://sodipodi.sourceforge.net/DTD/sodipodi-0.dtd"
   xmlns:inkscape="http://www.inkscape.org/namespaces/inkscape"
   width="24"
   height="24"
   viewBox="0 0 24 24"
   fill="none"
   stroke="currentColor"
   stroke-width="2"
   stroke-linecap="round"
   stroke-linejoin="round"
   class="feather feather-thumbs-down"
   version="1.1"
   id="svg3725"
   sodipodi:docname="thumbs-down-selected.svg"
   inkscape:version="0.92.4 (5da689c313, 2019-01-14)">
  <metadata
     id="metadata3731">
    <rdf:RDF>
      <cc:Work
         rdf:about="">
        <dc:format>image/svg+xml</dc:format>
        <dc:type
           rdf:resource="http://purl.org/dc/dcmitype/StillImage" />
        <dc:title></dc:title>
      </cc:Work>
    </rdf:RDF>
  </metadata>
  <defs
     id="defs3729" />
  <sodipodi:namedview
     pagecolor="#ffffff"
     bordercolor="#666666"
     borderopacity="1"
     objecttolerance="10"
     gridtolerance="10"
     guidetolerance="10"
     inkscape:pageopacity="0"
     inkscape:pageshadow="2"
     inkscape:window-width="5120"
     inkscape:window-height="1369"
     id="namedview3727"
     showgrid="false"
     inkscape:zoom="50"
     inkscape:cx="12.06"
     inkscape:cy="12"
     inkscape:window-x="-8"
     inkscape:window-y="-8"
     inkscape:window-maximized="1"
     inkscape:current-layer="svg3725" />
  <path
     d="M10 15v4a3 3 0 0 0 3 3l4-9V2H5.72a2 2 0 0 0-2 1.7l-1.38 9a2 2 0 0 0 2 2.3zm7-13h2.67A2.31 2.31 0 0 1 22 4v7a2.31 2.31 0 0 1-2.33 2H17"
     id="path3723" />
  <path
     style="fill:#ff0000;stroke-width:0.04"
     d="M 12.75,22.977332 C 12.226252,22.948588 11.743281,22.82094 11.25,22.580888 10.19327,22.066636 9.417154,21.107276 9.1297224,19.96 9.0156318,19.504611 9.014564,19.485004 9.005269,17.675 L 8.9966672,16 6.7033336,15.999294 C 5.4420002,15.998906 4.2928622,15.990501 4.149694,15.980616 3.7149454,15.950601 3.3451542,15.853204 2.99,15.675173 2.0158727,15.186863 1.400518,14.24697 1.3302046,13.14 1.3235669,13.0355 1.3276828,12.86 1.3393511,12.75 1.375061,12.413352 2.7595501,3.4202608 2.800511,3.2588856 2.9299738,2.7488359 3.2012758,2.2781665 3.5897212,1.8897211 3.8461364,1.6333059 4.0881944,1.4613545 4.4054106,1.3102777 4.7948156,1.1248204 5.0799726,1.0497906 5.51,1.0196407 5.8568052,0.9953256 19.589945,0.9953073 19.922138,1.0196214 c 0.462335,0.03384 0.797684,0.1223763 1.209582,0.3193458 0.936586,0.4478751 1.583686,1.2715344 1.813318,2.3080776 L 22.99,3.85 v 3.65 3.65 l -0.04496,0.202955 c -0.298358,1.346769 -1.331168,2.34611 -2.676424,2.589694 -0.22103,0.04002 -0.326839,0.0441 -1.435848,0.05528 L 17.635531,14.01 15.778866,18.19 c -1.021165,2.299 -1.87741,4.220156 -1.902765,4.269236 -0.06022,0.116568 -0.232646,0.301656 -0.351653,0.377478 -0.115963,0.07388 -0.301071,0.136196 -0.434448,0.146252 -0.055,0.0041 -0.208,0.0016 -0.34,-0.0056 z M 14.211455,16.834269 16,12.810187 V 7.9050934 3 H 10.762107 C 5.5936946,3 5.5225082,3.000526 5.3956642,3.0397048 5.1301306,3.1217198 4.9070294,3.3166782 4.7888188,3.57 4.7355566,3.6841396 4.7121696,3.7820396 4.6622096,4.1 c -0.5261278,3.3484292 -1.3466894,8.778358 -1.346464,8.91 7.24e-4,0.423145 0.2516002,0.779457 0.6649098,0.944354 0.083938,0.03349 0.2739,0.03625 3.1393446,0.04565 l 3.05,0.01 0.13,0.04656 c 0.170304,0.06099 0.292901,0.14077 0.413389,0.269012 0.121909,0.129756 0.170355,0.208655 0.229909,0.374432 l 0.0467,0.13 0.0103,2.27 0.0103,2.27 0.05396,0.172771 c 0.07607,0.243537 0.13942,0.378711 0.268227,0.572296 0.212604,0.319523 0.552987,0.600175 0.895317,0.738205 0.137661,0.05551 0.163707,0.06063 0.178025,0.03505 0.0092,-0.01648 0.821617,-1.840806 1.805316,-4.054051 z m 5.819343,-4.864311 c 0.427277,-0.107683 0.784297,-0.438785 0.930105,-0.862583 C 20.999116,10.996307 21,10.914749 21,7.5 21,4.0852512 20.999116,4.0036928 20.960903,3.892625 20.847932,3.564269 20.614901,3.2924628 20.319969,3.1450416 20.029594,2.9998986 20.030548,3 18.955798,3 H 18 V 7.5 12 h 0.955798 c 0.783948,0 0.97723,-0.0054 1.075,-0.03004 z"
     id="path3739"
     inkscape:connector-curvature="0" />
  <path
     style="fill:#ff0000;stroke-width:0.04"
     d="M 12.594,22.937426 C 11.517517,22.834752 10.480555,22.243876 9.8248456,21.35952 9.4026722,20.790135 9.120282,20.069941 9.0656272,19.423245 9.0547854,19.29496 9.0396154,18.469074 9.0319162,17.587943 L 9.0179176,15.985886 6.6059588,15.971857 C 5.2793814,15.964141 4.1134674,15.949027 4.0150386,15.93827 3.3128976,15.861535 2.7237049,15.581307 2.2331971,15.090802 1.8154414,14.673048 1.5535323,14.191845 1.4204837,13.59761 1.3805665,13.419328 1.3740902,13.33632 1.3746382,13.01 1.3752507,12.645294 1.3803041,12.5974 1.5001978,11.82 1.5689047,11.3745 1.8187982,9.75 2.0555168,8.21 2.7372015,3.7752218 2.8180807,3.2745222 2.8851984,3.0736814 3.0564984,2.5610882 3.3871864,2.0800422 3.8111972,1.726647 4.2550518,1.3567129 4.8065434,1.1213413 5.3706224,1.0610986 5.6643884,1.0297249 19.762512,1.0280439 20.044,1.059349 c 0.688349,0.076553 1.344388,0.36691 1.839996,0.8143658 0.517118,0.4668762 0.834828,1.001308 1.012466,1.7031092 L 22.964,3.8436482 v 3.6536776 3.6536782 l -0.05855,0.239498 c -0.159994,0.654426 -0.427736,1.135496 -0.891102,1.601106 -0.387374,0.389253 -0.773581,0.63126 -1.272773,0.797555 -0.429689,0.143142 -0.488614,0.149802 -1.517573,0.171526 -0.5115,0.0108 -1.082734,0.02181 -1.269408,0.02447 l -0.339408,0.0048 -1.395328,3.14 c -2.053066,4.620154 -2.335079,5.251072 -2.390062,5.347036 -0.0804,0.140334 -0.274881,0.32057 -0.413089,0.382836 -0.222709,0.100338 -0.404323,0.117458 -0.822705,0.07755 z M 12.755845,20.17 c 0.181455,-0.407 0.991021,-2.225764 1.799036,-4.041698 L 16.024,12.826604 V 7.9033022 2.98 l -5.215,1.158e-4 C 7.4938126,2.9801895 5.5502842,2.9873818 5.474,2.9998588 5.1102968,3.0593458 4.7923818,3.3737498 4.6952584,3.77 4.6389892,3.9995714 3.524631,11.283468 3.3234418,12.736749 c -0.036594,0.264337 -0.039209,0.326058 -0.018911,0.446396 0.05324,0.31564 0.2709504,0.601268 0.5715288,0.749822 l 0.1558662,0.07703 3.0710372,0.01551 3.071037,0.01551 0.13543,0.05143 c 0.273584,0.103889 0.489664,0.319137 0.594076,0.591791 l 0.05582,0.145764 0.01408,2.279468 0.01408,2.279468 0.05053,0.160532 c 0.190397,0.604884 0.618697,1.090901 1.165995,1.323123 0.213948,0.09078 0.177373,0.137345 0.551845,-0.702591 z m 7.431975,-8.222402 c 0.420558,-0.170614 0.767997,-0.578437 0.81702,-0.959016 C 21.02918,10.79965 21.02818,4.1916762 21.00374,4.0038242 20.959588,3.663483 20.667177,3.2908524 20.304,3.1120622 20.181239,3.0516274 20.067995,3.011536 19.984,2.9987733 19.90814,2.9872463 19.462543,2.9813063 18.914,2.9845103 l -0.94,0.00549 -0.0051,4.49 c -0.0028,2.4695 -7.06e-4,4.5016337 0.0047,4.5158517 0.0079,0.02078 0.211063,0.0247 1.035126,0.02 L 20.034,12.01 Z"
     id="path3741"
     inkscape:connector-curvature="0" />
</svg>
